<svg xmlns="http://www.w3.org/2000/svg" style="display:none">
  <symbol id="icon-in" viewBox="0 0 24 24">
    <circle cx="12" cy="12" r="10" fill="#0A66C2" />
    <text x="12" y="16" font-size="9" text-anchor="middle" fill="#fff" font-family="Arial, Helvetica, sans-serif">in</text>
  </symbol>

  <symbol id="icon-gh" viewBox="0 0 24 24">
    <circle cx="12" cy="12" r="10" fill="#333" />
    <text x="12" y="16" font-size="9" text-anchor="middle" fill="#fff" font-family="Arial, Helvetica, sans-serif">gh</text>
  </symbol>

  <symbol id="icon-ig" viewBox="0 0 24 24">
    <circle cx="12" cy="12" r="10" fill="#E1306C" />
    <text x="12" y="16" font-size="9" text-anchor="middle" fill="#fff" font-family="Arial, Helvetica, sans-serif">ig</text>
  </symbol>

  <symbol id="icon-fb" viewBox="0 0 24 24">
    <circle cx="12" cy="12" r="10" fill="#1877F2" />
    <text x="12" y="16" font-size="9" text-anchor="middle" fill="#fff" font-family="Arial, Helvetica, sans-serif">fb</text>
  </symbol>

  <symbol id="icon-wa" viewBox="0 0 24 24">
    <circle cx="12" cy="12" r="10" fill="#25D366" />
    <text x="12" y="16" font-size="8.5" text-anchor="middle" fill="#fff" font-family="Arial, Helvetica, sans-serif">wa</text>
  </symbol>

  <symbol id="icon-mail" viewBox="0 0 24 24">
    <rect x="3" y="6" width="18" height="12" rx="2" ry="2" fill="#111" />
    <polyline points="4,8 12,13 20,8" fill="none" stroke="#fff" stroke-width="1.2" stroke-linecap="round" stroke-linejoin="round"/>
  </symbol>

  <symbol id="icon-tel" viewBox="0 0 24 24">
    <path d="M6.6 10.8c1.2 2.3 3 4.1 5.3 5.3l1.6-1.6c0.2-0.2 0.5-0.3 0.8-0.2 0.9 0.3 2 0.5 3.2 0.5 0.4 0 0.7 0.3 0.7 0.7v2.2c0 0.4-0.3 0.7-0.7 0.7C8.8 22 2 15.2 2 6.8 2 6.4 2.3 6.1 2.7 6.1H5c0.4 0 0.7 0.3 0.7 0.7 0 1.2 0.2 2.3 0.5 3.2 0.1 0.3 0 0.6-0.2 0.8L6.6 10.8z" fill="#111" />
  </symbol>

  <symbol id="icon-loc" viewBox="0 0 24 24">
    <path d="M12 2C8.1 2 5 5.1 5 9c0 5 7 13 7 13s7-8 7-13c0-3.9-3.1-7-7-7zm0 9.5c-1.4 0-2.5-1.1-2.5-2.5S10.6 6.5 12 6.5s2.5 1.1 2.5 2.5S13.4 11.5 12 11.5z" fill="#D00" />
  </symbol>
</svg>
